<svg width="213" height="208" viewBox="0 0 213 208" fill="none" xmlns="http://www.w3.org/2000/svg">
<rect width="213" height="208" rx="104" fill="#0D484E"/>
<path d="M148.02 56.2715L174.842 55.6055C176.214 55.6055 176.9 55.9889 176.9 56.7559C176.9 60.429 175.467 65.9388 172.602 73.2852C169.736 80.6315 166.244 87.5944 162.127 94.1738C158.01 100.713 153.549 106.768 148.746 112.338C143.943 117.868 138.776 123.055 133.246 127.898C127.757 132.702 122.348 136.779 117.02 140.129C105.556 147.395 95.6868 151.027 87.4121 151.027C82.4876 151.027 77.7852 148.888 73.3047 144.609C68.8242 140.331 65.2318 134.74 62.5273 127.838C59.8633 120.895 58.5312 113.71 58.5312 106.283C58.5312 100.229 59.9036 93.6087 62.6484 86.4238C63.5768 83.9212 64.4648 81.7012 65.3125 79.7637C66.1602 77.8262 66.584 76.5143 66.584 75.8281C66.584 75.1016 66.3418 74.4759 65.8574 73.9512C65.373 73.4264 64.5859 72.9824 63.4961 72.6191C62.043 72.0944 60.3275 71.6908 58.3496 71.4082C54.959 70.8431 53.2637 69.6322 53.2637 67.7754C53.2637 66.1204 55.2415 64.304 59.1973 62.3262C63.1934 60.3483 68.6628 58.6328 75.6055 57.1797C82.5885 55.6862 89.2083 54.9395 95.4648 54.9395C101.721 54.9395 106.283 55.3431 109.148 56.1504C112.055 56.9173 113.508 58.3704 113.508 60.5098C113.508 61.4382 113.185 62.4674 112.539 63.5977C105.072 76.2318 99.9857 86.6055 97.2812 94.7188C94.6172 102.832 93.2852 111.611 93.2852 121.057C93.2852 124.205 93.7292 127.354 94.6172 130.502C95.5052 133.65 96.6354 135.225 98.0078 135.225C99.8242 135.225 102.307 133.792 105.455 130.926C108.644 128.02 112.095 124.023 115.809 118.938C119.522 113.811 123.175 108.16 126.768 101.984C130.4 95.7682 133.751 88.9466 136.818 81.5195C139.886 74.0924 142.187 67.0286 143.721 60.3281C143.882 59.6823 144.023 59.1576 144.145 58.7539C144.306 58.3503 144.71 57.8861 145.355 57.3613C146.042 56.7962 146.93 56.4329 148.02 56.2715Z" fill="white"/>
</svg>
