<svg width="117" height="165" viewBox="0 0 117 165" fill="none" xmlns="http://www.w3.org/2000/svg">
<g clip-path="url(#clip0_98_748)">
<path d="M141.747 36.4305C136.346 24.8536 122.851 19.9441 111.275 25.3445C105.635 27.9754 101.399 32.8427 99.3403 38.5017C94.8488 36.6211 89.7237 36.4819 84.994 37.9652C81.4734 27.3185 86.6399 15.1497 97.0293 10.3032C98.8104 9.47239 99.4437 7.73109 98.613 5.95025C97.7822 4.16941 96.0408 3.53586 94.26 4.36659C87.4325 7.55148 82.1483 13.2695 79.3174 20.3729C76.2114 16.0389 72.195 12.8524 67.1096 11.2488C59.7095 8.55639 51.1806 9.64347 44.0365 13.6989C42.5523 14.3912 42.2157 15.9941 42.6111 17.6168C45.3209 25.7502 51.3158 31.6281 58.7162 34.3204C60.8927 35.1122 62.7923 35.3104 64.8306 35.8055C66.7302 36.0037 68.2344 34.5792 68.571 32.9763C68.7692 31.0767 67.3448 29.5725 65.7419 29.2359C64.2775 29.1963 62.6748 28.8595 61.2303 28.0875C56.1449 26.4839 52.287 22.8619 49.9331 17.8158C54.9794 15.4618 60.2628 15.1659 65.0512 16.9079C70.7102 18.9667 74.9838 23.4791 77.298 29.9896C77.4366 30.2866 77.575 30.5833 77.4165 31.0187C77.5551 31.3156 77.5153 32.7798 77.3568 33.2152C77.554 36.7375 78.4836 40.2797 80.0068 43.5449C80.8376 45.326 82.5789 45.9593 84.3598 45.1286C92.6714 41.2513 102.248 44.7355 106.125 53.0471C110.003 61.3587 106.519 70.9356 98.2069 74.8128C89.8953 78.69 80.3184 75.2059 76.4412 66.8943C74.5026 62.7385 74.3451 57.7518 76.3641 53.557C76.9976 51.8156 76.1669 50.0347 74.7224 49.2627C72.981 48.6291 71.2002 49.4599 70.4281 50.9043C70.2697 51.3398 70.1114 51.7749 69.953 52.2103C64.294 50.1515 57.843 50.2694 52.203 52.9003C40.6261 58.3007 35.7166 71.7955 41.117 83.3724C46.5174 94.9493 60.0122 99.8588 71.5891 94.4584C73.9638 93.3506 76.2 91.9459 77.8626 90.086C79.0698 88.8001 79.1295 86.6035 77.8436 85.3963C76.5576 84.189 74.3611 84.1293 73.1539 85.4153C71.6497 86.8398 70.304 87.829 68.5229 88.6599C60.2113 92.5371 50.6345 89.0529 46.7572 80.7413C42.88 72.4297 46.3642 62.8528 54.6758 58.9756C59.1285 56.8985 64.2533 57.0378 68.4481 59.0568C68.3486 62.7174 68.9813 66.3981 70.5045 69.6634C75.6278 80.6464 88.5288 85.8329 99.7891 81.3033C101.51 82.669 102.777 84.6082 103.746 86.6863C107.623 94.9979 104.139 104.575 95.8275 108.452C88.4064 111.914 79.9771 109.34 75.4664 102.77C74.4772 101.424 72.4391 100.929 70.7965 102.057C69.4508 103.046 68.9557 105.084 70.0835 106.727C75.4449 114.346 84.7251 117.968 93.5706 116.011C93.6494 118.504 94.3217 120.721 95.4295 123.095C100.83 134.672 114.325 139.582 125.902 134.181C135.994 129.473 141.141 118.036 138.352 107.41C137.957 105.787 135.939 104.56 134.316 104.955C132.693 105.351 131.466 107.369 131.861 108.992C133.997 116.67 130.553 124.783 123.132 128.244C114.82 132.122 105.244 128.637 101.366 120.326C100.397 118.248 100.021 115.893 99.7844 113.835C110.491 108.118 114.806 94.9001 109.683 83.9168C108.575 81.5421 107.309 79.6026 105.449 77.9402C113.682 71.5695 116.632 60.0734 112.062 50.2776C110.401 46.7155 107.987 43.8656 105.257 41.8866C106.405 37.375 109.592 33.3587 114.044 31.2816C122.356 27.4044 131.933 30.8886 135.81 39.2002C139.687 47.5118 136.203 57.0887 127.891 60.9659C126.11 61.7968 124.488 62.1922 122.43 62.4294C120.668 62.5281 119.303 64.2495 119.402 66.0106C119.5 67.7716 121.222 69.1373 122.983 69.0386C125.041 68.8014 126.96 68.2675 129.177 67.5951C130.898 68.9608 132.164 70.9001 133.134 72.9781C137.011 81.2897 133.527 90.8666 125.215 94.7438C123.434 95.5747 121.811 95.9701 119.753 96.2073C117.992 96.306 116.626 98.0274 116.725 99.7885C116.824 101.55 118.545 102.915 120.306 102.817C123.097 102.599 125.313 101.927 127.688 100.819C139.265 95.4187 144.174 81.9239 138.774 70.347C137.666 67.9723 136.4 66.0328 134.54 64.3705C143.366 57.7225 146.316 46.2263 141.747 36.4305Z" fill="#0D484E"/>
</g>
<defs>
<clipPath id="clip0_98_748">
<rect width="143.893" height="143.893" fill="white" transform="translate(0 34.0735) rotate(-25.0082)"/>
</clipPath>
</defs>
</svg>
