<svg width="1392" height="198" viewBox="0 0 1392 198" fill="none" xmlns="http://www.w3.org/2000/svg">
<path opacity="0.9" d="M186.734 10.5001L239.593 9.18764C242.297 9.18764 243.65 9.94332 243.65 11.4547C243.65 18.6934 240.826 29.5514 235.178 44.0288C229.53 58.5062 222.649 72.2279 214.536 85.1939C206.422 98.0804 197.632 110.012 188.166 120.99C178.7 131.887 168.518 142.109 157.62 151.655C146.802 161.121 136.143 169.155 125.643 175.757C103.052 190.075 83.6029 197.235 67.2959 197.235C57.5913 197.235 48.3242 193.019 39.4946 184.587C30.665 176.155 23.5854 165.138 18.2558 151.535C13.0057 137.853 10.3807 123.694 10.3807 109.058C10.3807 97.1258 13.0853 84.0802 18.4944 69.921C20.324 64.9892 22.074 60.6142 23.7445 56.796C25.4149 52.9777 26.2502 50.3925 26.2502 49.0402C26.2502 47.6084 25.7729 46.3754 24.8183 45.3413C23.8638 44.3072 22.3126 43.4322 20.1649 42.7163C17.3012 41.6822 13.9205 40.8867 10.0228 40.3299C3.34089 39.2163 -3.99351e-05 36.8299 -3.99351e-05 33.1708C-3.99351e-05 29.9094 3.89772 26.3298 11.6932 22.4321C19.5683 18.5343 30.3468 15.1536 44.0287 12.2899C57.7902 9.34673 70.8357 7.87513 83.1654 7.87513C95.495 7.87513 104.484 8.67059 110.131 10.2615C115.859 11.7729 118.722 14.6365 118.722 18.8525C118.722 20.682 118.086 22.7105 116.813 24.9378C102.097 49.8357 92.0745 70.279 86.7449 86.2678C81.4949 102.257 78.8699 119.558 78.8699 138.172C78.8699 144.376 79.7449 150.581 81.4949 156.785C83.2449 162.99 85.4722 166.092 88.1768 166.092C91.7563 166.092 96.6484 163.268 102.853 157.621C109.137 151.893 115.938 144.018 123.257 133.995C130.575 123.893 137.774 112.757 144.853 100.586C152.012 88.336 158.615 74.8927 164.66 60.2562C170.706 45.6197 175.24 31.6992 178.263 18.4945C178.581 17.2218 178.859 16.1877 179.098 15.3922C179.416 14.5968 180.212 13.682 181.484 12.6479C182.837 11.5342 184.587 10.8183 186.734 10.5001ZM349.724 23.0287C349.724 31.5401 344.991 38.9776 335.525 45.3413C326.139 51.6255 316.196 54.7675 305.695 54.7675C295.275 54.7675 287.161 52.6596 281.354 48.4436C275.547 44.1481 272.644 38.9379 272.644 32.8128C272.644 26.6878 274.871 21.1195 279.326 16.1081C283.781 11.0967 289.548 7.15921 296.627 4.29555C303.786 1.4319 311.542 6.73532e-05 319.894 6.73532e-05C328.247 6.73532e-05 335.287 2.22736 341.014 6.68194C346.821 11.057 349.724 16.5059 349.724 23.0287ZM316.196 171.104C321.605 171.104 328.923 169.831 338.15 167.285C347.457 164.66 354.219 162.354 358.434 160.365C362.65 158.297 365.594 157.263 367.264 157.263C370.605 157.263 372.275 158.933 372.275 162.274C372.275 163.785 371.043 165.496 368.577 167.405C360.463 173.45 345.866 179.734 324.787 186.257C303.707 192.78 284.894 196.041 268.349 196.041C258.087 196.041 249.496 194.411 242.576 191.149C235.655 187.888 232.195 182.916 232.195 176.234C232.195 172.178 235.655 162.234 242.576 146.405C255.621 116.416 262.144 93.8246 262.144 78.6313L262.025 74.0972C262.025 70.1199 265.883 68.1313 273.599 68.1313L332.542 66.8188C334.61 66.8188 336.162 67.4551 337.196 68.7279C338.23 69.921 338.747 71.2733 338.747 72.7847C338.747 78.2734 336.241 87.3416 331.23 99.9895C326.218 112.558 321.207 124.927 316.196 137.098C311.184 149.268 308.678 157.979 308.678 163.229C308.678 168.479 311.184 171.104 316.196 171.104ZM467.85 69.8017L499.231 65.7449C505.117 65.7449 508.061 68.0517 508.061 72.6654C508.061 77.2791 505.277 80.1825 499.708 81.3757C494.14 82.4893 481.572 84.0007 462.003 85.9098C459.299 92.9894 455.242 102.813 449.833 115.382C438.776 141.155 433.248 156.626 433.248 161.797C433.248 167.445 436.748 170.268 443.748 170.268C466.339 170.268 486.623 166.49 504.6 158.933C507.225 157.819 509.294 157.263 510.805 157.263C513.748 157.263 515.22 158.575 515.22 161.2C515.22 163.825 513.311 166.41 509.492 168.956C497.799 176.672 480.18 183.115 456.634 188.286C433.088 193.456 411.372 196.041 391.486 196.041C380.19 196.041 371.56 194.291 365.594 190.791C359.628 187.212 356.645 182.32 356.645 176.115C356.645 169.831 360.781 158.098 369.054 140.916C378.361 121.666 385.043 104.762 389.099 90.2053C384.168 90.4439 380.747 90.5633 378.838 90.5633C374.145 90.5633 371.798 88.6541 371.798 84.8359C371.798 82.0518 372.554 80.1825 374.065 79.2279C375.577 78.2734 377.128 77.5972 378.719 77.1995C380.389 76.8018 381.781 76.5631 382.895 76.4836C384.088 76.3245 385.719 76.1654 387.787 76.0063C389.855 75.8472 391.367 75.7279 392.321 75.6484C393.355 69.6029 393.872 63.9153 393.872 58.5857L393.753 54.0516C393.753 50.472 398.287 48.0459 407.355 46.7731C410.378 46.3754 419.884 44.3868 435.873 40.8072C451.861 37.2276 461.645 35.4378 465.225 35.4378C470.952 35.4378 473.816 37.4265 473.816 41.4038C473.816 48.2447 471.827 57.7107 467.85 69.8017ZM586.095 165.734C601.05 165.734 613.539 154.28 623.561 131.37C628.175 120.87 630.482 112.359 630.482 105.836C630.482 99.3133 629.368 94.819 627.141 92.353C624.993 89.8871 620.698 88.6541 614.255 88.6541C607.891 88.6541 600.97 91.6371 593.493 97.6031C586.095 103.489 580.129 110.927 575.595 119.916C571.061 128.904 568.794 137.018 568.794 144.257C568.794 151.416 570.385 156.785 573.567 160.365C576.749 163.944 580.925 165.734 586.095 165.734ZM648.141 64.671L702.789 67.1767C704.858 67.1767 706.409 67.8131 707.443 69.0858C708.477 70.279 708.994 71.6313 708.994 73.1427C708.994 78.9495 706.568 88.2166 701.715 100.944C696.943 113.592 692.13 126.16 687.278 138.649C682.505 151.058 680.119 159.291 680.119 163.348C680.119 167.325 680.715 169.871 681.909 170.984C683.181 172.098 685.568 172.655 689.068 172.655C692.568 172.655 698.931 170.984 708.159 167.643C717.466 164.223 723.75 161.638 727.011 159.888C730.352 158.138 732.898 157.263 734.648 157.263C737.75 157.263 739.301 158.655 739.301 161.439C739.301 167.325 727.369 175.041 703.505 184.587C695.471 187.848 685.766 190.553 674.391 192.7C663.096 194.928 651.601 196.041 639.908 196.041C620.419 196.041 608.686 189.837 604.709 177.428C592.3 189.837 575.595 196.041 554.595 196.041C540.197 196.041 528.027 192.581 518.083 185.661C507.265 178.104 501.856 166.212 501.856 149.984C501.856 132.882 506.907 117.132 517.01 102.734C528.066 86.745 542.862 75.7279 561.396 69.6824C571.658 66.3415 582.675 64.671 594.448 64.671C612.505 64.671 626.544 69.1256 636.567 78.0347C636.647 77.5575 636.687 76.8018 636.687 75.7677L636.567 70.637C636.567 66.6597 640.425 64.671 648.141 64.671ZM761.972 68.4892L818.529 67.1767C820.597 67.1767 822.148 67.8131 823.182 69.0858C824.216 70.279 824.733 71.7904 824.733 73.6199C824.733 75.37 824.296 78.2336 823.421 82.2109C844.66 70.5176 863.154 64.671 878.904 64.671C885.745 64.671 892.069 66.3812 897.876 69.8017C903.762 73.2222 907.581 78.2734 909.331 84.9553C935.263 71.4324 956.74 64.671 973.763 64.671C981.24 64.671 987.843 66.779 993.57 70.9949C999.695 75.6086 1002.76 82.1314 1002.76 90.5633C1002.76 98.9156 1001.29 107.745 998.343 117.052C995.479 126.279 992.576 134.91 989.632 142.944C986.769 150.978 985.337 156.666 985.337 160.007C985.337 163.268 986.172 165.734 987.843 167.405C989.513 169.075 991.74 169.91 994.524 169.91C1004.79 169.91 1017.51 166.331 1032.71 159.172C1035.57 157.899 1037.76 157.263 1039.27 157.263C1042.85 157.263 1044.64 158.694 1044.64 161.558C1044.64 164.104 1043.09 166.53 1039.99 168.837C1036.96 171.064 1032.55 173.53 1026.74 176.234C1020.93 178.939 1013.73 181.842 1005.14 184.945C996.632 188.047 986.61 190.672 975.075 192.82C963.541 194.967 953.24 196.041 944.172 196.041C935.183 196.041 928.461 194.53 924.007 191.507C919.552 188.484 917.325 184.587 917.325 179.814C917.325 175.041 918.836 167.882 921.859 158.336C924.961 148.791 928.064 139.365 931.166 130.058C934.268 120.671 935.82 113.87 935.82 109.654C935.82 105.359 934.785 102.296 932.717 100.467C930.649 98.5576 927.547 97.6031 923.41 97.6031C919.353 97.6031 914.859 98.2394 909.927 99.5122C908.655 113.115 903.365 133.836 894.058 161.677C890.16 173.371 887.973 180.689 887.495 183.632C887.018 186.575 886.7 188.286 886.541 188.763C886.382 189.161 886.103 189.717 885.705 190.433C884.99 191.706 883.478 192.342 881.171 192.342C869.717 192.342 858.381 192.541 847.165 192.939C836.029 193.416 828.83 193.655 825.569 193.655C822.387 193.655 820.796 191.786 820.796 188.047C820.796 184.308 822.029 178.74 824.495 171.342C826.961 163.944 829.705 156.586 832.728 149.268C840.603 129.859 844.54 115.382 844.54 105.836C844.54 98.7565 839.927 95.2167 830.699 95.2167C826.802 95.2167 823.103 95.8531 819.603 97.1258C816.5 107.705 811.131 124.45 803.495 147.359C795.938 170.268 791.682 183.155 790.728 186.019C789.455 190.234 787.188 192.342 783.926 192.342L722.596 193.655C721.721 193.655 720.727 193.098 719.613 191.984C718.579 190.95 718.062 189.717 718.062 188.286C718.062 186.774 719.733 181.564 723.074 172.655C726.494 163.666 730.233 154.041 734.29 143.78C738.346 133.439 742.045 122.103 745.386 109.774C748.807 97.3644 750.517 87.103 750.517 78.9893L750.398 74.4552C750.398 70.4779 754.256 68.4892 761.972 68.4892ZM1144.63 23.0287C1144.63 31.5401 1139.89 38.9776 1130.43 45.3413C1121.04 51.6255 1111.1 54.7675 1100.6 54.7675C1090.18 54.7675 1082.06 52.6596 1076.26 48.4436C1070.45 44.1481 1067.55 38.9379 1067.55 32.8128C1067.55 26.6878 1069.78 21.1195 1074.23 16.1081C1078.68 11.0967 1084.45 7.15921 1091.53 4.29555C1098.69 1.4319 1106.45 6.73532e-05 1114.8 6.73532e-05C1123.15 6.73532e-05 1130.19 2.22736 1135.92 6.68194C1141.72 11.057 1144.63 16.5059 1144.63 23.0287ZM1111.1 171.104C1116.51 171.104 1123.83 169.831 1133.05 167.285C1142.36 164.66 1149.12 162.354 1153.34 160.365C1157.55 158.297 1160.5 157.263 1162.17 157.263C1165.51 157.263 1167.18 158.933 1167.18 162.274C1167.18 163.785 1165.95 165.496 1163.48 167.405C1155.37 173.45 1140.77 179.734 1119.69 186.257C1098.61 192.78 1079.8 196.041 1063.25 196.041C1052.99 196.041 1044.4 194.411 1037.48 191.149C1030.56 187.888 1027.1 182.916 1027.1 176.234C1027.1 172.178 1030.56 162.234 1037.48 146.405C1050.52 116.416 1057.05 93.8246 1057.05 78.6313L1056.93 74.0972C1056.93 70.1199 1060.79 68.1313 1068.5 68.1313L1127.45 66.8188C1129.51 66.8188 1131.07 67.4551 1132.1 68.7279C1133.13 69.921 1133.65 71.2733 1133.65 72.7847C1133.65 78.2734 1131.14 87.3416 1126.13 99.9895C1121.12 112.558 1116.11 124.927 1111.1 137.098C1106.09 149.268 1103.58 157.979 1103.58 163.229C1103.58 168.479 1106.09 171.104 1111.1 171.104ZM1238.05 165.734C1253.01 165.734 1265.5 154.28 1275.52 131.37C1280.13 120.87 1282.44 112.359 1282.44 105.836C1282.44 99.3133 1281.33 94.819 1279.1 92.353C1276.95 89.8871 1272.66 88.6541 1266.21 88.6541C1259.85 88.6541 1252.93 91.6371 1245.45 97.6031C1238.05 103.489 1232.09 110.927 1227.55 119.916C1223.02 128.904 1220.75 137.018 1220.75 144.257C1220.75 151.416 1222.34 156.785 1225.53 160.365C1228.71 163.944 1232.88 165.734 1238.05 165.734ZM1300.1 64.671L1354.75 67.1767C1356.82 67.1767 1358.37 67.8131 1359.4 69.0858C1360.44 70.279 1360.95 71.6313 1360.95 73.1427C1360.95 78.9495 1358.53 88.2166 1353.67 100.944C1348.9 113.592 1344.09 126.16 1339.24 138.649C1334.46 151.058 1332.08 159.291 1332.08 163.348C1332.08 167.325 1332.67 169.871 1333.87 170.984C1335.14 172.098 1337.53 172.655 1341.03 172.655C1344.53 172.655 1350.89 170.984 1360.12 167.643C1369.43 164.223 1375.71 161.638 1378.97 159.888C1382.31 158.138 1384.86 157.263 1386.61 157.263C1389.71 157.263 1391.26 158.655 1391.26 161.439C1391.26 167.325 1379.33 175.041 1355.46 184.587C1347.43 187.848 1337.73 190.553 1326.35 192.7C1315.06 194.928 1303.56 196.041 1291.87 196.041C1272.38 196.041 1260.65 189.837 1256.67 177.428C1244.26 189.837 1227.55 196.041 1206.55 196.041C1192.16 196.041 1179.99 192.581 1170.04 185.661C1159.22 178.104 1153.82 166.212 1153.82 149.984C1153.82 132.882 1158.87 117.132 1168.97 102.734C1180.03 86.745 1194.82 75.7279 1213.36 69.6824C1223.62 66.3415 1234.63 64.671 1246.41 64.671C1264.46 64.671 1278.5 69.1256 1288.53 78.0347C1288.61 77.5575 1288.65 76.8018 1288.65 75.7677L1288.53 70.637C1288.53 66.6597 1292.38 64.671 1300.1 64.671Z" fill="url(#paint0_linear_134_832)"/>
<defs>
<linearGradient id="paint0_linear_134_832" x1="674.488" y1="-19.7314" x2="674.488" y2="168.269" gradientUnits="userSpaceOnUse">
<stop stop-color="#FF6E06"/>
<stop offset="1" stop-color="#FFD1A3"/>
</linearGradient>
</defs>
</svg>
