<svg width="183" height="26" viewBox="0 0 183 26" fill="none" xmlns="http://www.w3.org/2000/svg">
<path d="M24.4531 1.375L31.375 1.20312C31.7292 1.20312 31.9062 1.30208 31.9062 1.5C31.9062 2.44792 31.5365 3.86979 30.7969 5.76562C30.0573 7.66146 29.1562 9.45833 28.0938 11.1562C27.0312 12.8438 25.8802 14.4062 24.6406 15.8438C23.401 17.2708 22.0677 18.6094 20.6406 19.8594C19.224 21.099 17.8281 22.151 16.4531 23.0156C13.4948 24.8906 10.9479 25.8281 8.8125 25.8281C7.54167 25.8281 6.32812 25.276 5.17188 24.1719C4.01562 23.0677 3.08854 21.625 2.39062 19.8438C1.70312 18.0521 1.35938 16.1979 1.35938 14.2812C1.35938 12.7188 1.71354 11.0104 2.42188 9.15625C2.66146 8.51042 2.89062 7.9375 3.10938 7.4375C3.32812 6.9375 3.4375 6.59896 3.4375 6.42188C3.4375 6.23438 3.375 6.07292 3.25 5.9375C3.125 5.80208 2.92188 5.6875 2.64062 5.59375C2.26562 5.45833 1.82292 5.35417 1.3125 5.28125C0.4375 5.13542 0 4.82292 0 4.34375C0 3.91667 0.510417 3.44792 1.53125 2.9375C2.5625 2.42708 3.97396 1.98438 5.76562 1.60938C7.56771 1.22396 9.27604 1.03125 10.8906 1.03125C12.5052 1.03125 13.6823 1.13542 14.4219 1.34375C15.1719 1.54167 15.5469 1.91667 15.5469 2.46875C15.5469 2.70833 15.4635 2.97396 15.2969 3.26562C13.3698 6.52604 12.0573 9.20312 11.3594 11.2969C10.6719 13.3906 10.3281 15.6562 10.3281 18.0938C10.3281 18.9062 10.4427 19.7188 10.6719 20.5312C10.901 21.3438 11.1927 21.75 11.5469 21.75C12.0156 21.75 12.6562 21.3802 13.4688 20.6406C14.2917 19.8906 15.1823 18.8594 16.1406 17.5469C17.099 16.224 18.0417 14.7656 18.9688 13.1719C19.9062 11.5677 20.7708 9.80729 21.5625 7.89062C22.3542 5.97396 22.9479 4.15104 23.3438 2.42188C23.3854 2.25521 23.4219 2.11979 23.4531 2.01562C23.4948 1.91146 23.599 1.79167 23.7656 1.65625C23.9427 1.51042 24.1719 1.41667 24.4531 1.375ZM45.7969 3.01562C45.7969 4.13021 45.1771 5.10417 43.9375 5.9375C42.7083 6.76042 41.4062 7.17188 40.0312 7.17188C38.6667 7.17188 37.6042 6.89583 36.8438 6.34375C36.0833 5.78125 35.7031 5.09896 35.7031 4.29688C35.7031 3.49479 35.9948 2.76562 36.5781 2.10938C37.1615 1.45312 37.9167 0.9375 38.8438 0.5625C39.7812 0.1875 40.7969 0 41.8906 0C42.9844 0 43.9062 0.291667 44.6562 0.875C45.4167 1.44792 45.7969 2.16146 45.7969 3.01562ZM41.4062 22.4062C42.1146 22.4062 43.0729 22.2396 44.2812 21.9062C45.5 21.5625 46.3854 21.2604 46.9375 21C47.4896 20.7292 47.875 20.5938 48.0938 20.5938C48.5312 20.5938 48.75 20.8125 48.75 21.25C48.75 21.4479 48.5885 21.6719 48.2656 21.9219C47.2031 22.7135 45.2917 23.5365 42.5312 24.3906C39.7708 25.2448 37.3073 25.6719 35.1406 25.6719C33.7969 25.6719 32.6719 25.4583 31.7656 25.0312C30.8594 24.6042 30.4062 23.9531 30.4062 23.0781C30.4062 22.5469 30.8594 21.2448 31.7656 19.1719C33.474 15.2448 34.3281 12.2865 34.3281 10.2969L34.3125 9.70312C34.3125 9.18229 34.8177 8.92188 35.8281 8.92188L43.5469 8.75C43.8177 8.75 44.0208 8.83333 44.1562 9C44.2917 9.15625 44.3594 9.33333 44.3594 9.53125C44.3594 10.25 44.0312 11.4375 43.375 13.0938C42.7188 14.7396 42.0625 16.3594 41.4062 17.9531C40.75 19.5469 40.4219 20.6875 40.4219 21.375C40.4219 22.0625 40.75 22.4062 41.4062 22.4062ZM61.2656 9.14062L65.375 8.60938C66.1458 8.60938 66.5312 8.91146 66.5312 9.51562C66.5312 10.1198 66.1667 10.5 65.4375 10.6562C64.7083 10.8021 63.0625 11 60.5 11.25C60.1458 12.1771 59.6146 13.4635 58.9062 15.1094C57.4583 18.4844 56.7344 20.5104 56.7344 21.1875C56.7344 21.9271 57.1927 22.2969 58.1094 22.2969C61.0677 22.2969 63.724 21.8021 66.0781 20.8125C66.4219 20.6667 66.6927 20.5938 66.8906 20.5938C67.276 20.5938 67.4688 20.7656 67.4688 21.1094C67.4688 21.4531 67.2188 21.7917 66.7188 22.125C65.1875 23.1354 62.8802 23.9792 59.7969 24.6562C56.7135 25.3333 53.8698 25.6719 51.2656 25.6719C49.7865 25.6719 48.6562 25.4427 47.875 24.9844C47.0938 24.5156 46.7031 23.875 46.7031 23.0625C46.7031 22.2396 47.2448 20.7031 48.3281 18.4531C49.5469 15.9323 50.4219 13.7188 50.9531 11.8125C50.3073 11.8438 49.8594 11.8594 49.6094 11.8594C48.9948 11.8594 48.6875 11.6094 48.6875 11.1094C48.6875 10.7448 48.7865 10.5 48.9844 10.375C49.1823 10.25 49.3854 10.1615 49.5938 10.1094C49.8125 10.0573 49.9948 10.026 50.1406 10.0156C50.2969 9.99479 50.5104 9.97396 50.7812 9.95312C51.0521 9.93229 51.25 9.91667 51.375 9.90625C51.5104 9.11458 51.5781 8.36979 51.5781 7.67188L51.5625 7.07812C51.5625 6.60938 52.1562 6.29167 53.3438 6.125C53.7396 6.07292 54.9844 5.8125 57.0781 5.34375C59.1719 4.875 60.4531 4.64062 60.9219 4.64062C61.6719 4.64062 62.0469 4.90104 62.0469 5.42188C62.0469 6.31771 61.7865 7.55729 61.2656 9.14062ZM76.75 21.7031C78.7083 21.7031 80.3438 20.2031 81.6562 17.2031C82.2604 15.8281 82.5625 14.7135 82.5625 13.8594C82.5625 13.0052 82.4167 12.4167 82.125 12.0938C81.8438 11.7708 81.2812 11.6094 80.4375 11.6094C79.6042 11.6094 78.6979 12 77.7188 12.7812C76.75 13.5521 75.9688 14.526 75.375 15.7031C74.7812 16.8802 74.4844 17.9427 74.4844 18.8906C74.4844 19.8281 74.6927 20.5312 75.1094 21C75.526 21.4688 76.0729 21.7031 76.75 21.7031ZM84.875 8.46875L92.0312 8.79688C92.3021 8.79688 92.5052 8.88021 92.6406 9.04688C92.776 9.20312 92.8438 9.38021 92.8438 9.57812C92.8438 10.3385 92.526 11.5521 91.8906 13.2188C91.2656 14.875 90.6354 16.5208 90 18.1562C89.375 19.7812 89.0625 20.8594 89.0625 21.3906C89.0625 21.9115 89.1406 22.2448 89.2969 22.3906C89.4635 22.5365 89.776 22.6094 90.2344 22.6094C90.6927 22.6094 91.526 22.3906 92.7344 21.9531C93.9531 21.5052 94.776 21.1667 95.2031 20.9375C95.6406 20.7083 95.974 20.5938 96.2031 20.5938C96.6094 20.5938 96.8125 20.776 96.8125 21.1406C96.8125 21.9115 95.25 22.9219 92.125 24.1719C91.0729 24.599 89.8021 24.9531 88.3125 25.2344C86.8333 25.526 85.3281 25.6719 83.7969 25.6719C81.2448 25.6719 79.7083 24.8594 79.1875 23.2344C77.5625 24.8594 75.375 25.6719 72.625 25.6719C70.7396 25.6719 69.1458 25.2188 67.8438 24.3125C66.4271 23.3229 65.7188 21.7656 65.7188 19.6406C65.7188 17.401 66.3802 15.3385 67.7031 13.4531C69.151 11.3594 71.0885 9.91667 73.5156 9.125C74.8594 8.6875 76.3021 8.46875 77.8438 8.46875C80.2083 8.46875 82.0469 9.05208 83.3594 10.2188C83.3698 10.1562 83.375 10.0573 83.375 9.92188L83.3594 9.25C83.3594 8.72917 83.8646 8.46875 84.875 8.46875ZM99.7812 8.96875L107.188 8.79688C107.458 8.79688 107.661 8.88021 107.797 9.04688C107.932 9.20312 108 9.40104 108 9.64062C108 9.86979 107.943 10.2448 107.828 10.7656C110.609 9.23438 113.031 8.46875 115.094 8.46875C115.99 8.46875 116.818 8.69271 117.578 9.14062C118.349 9.58854 118.849 10.25 119.078 11.125C122.474 9.35417 125.286 8.46875 127.516 8.46875C128.495 8.46875 129.359 8.74479 130.109 9.29688C130.911 9.90104 131.312 10.7552 131.312 11.8594C131.312 12.9531 131.12 14.1094 130.734 15.3281C130.359 16.5365 129.979 17.6667 129.594 18.7188C129.219 19.7708 129.031 20.5156 129.031 20.9531C129.031 21.3802 129.141 21.7031 129.359 21.9219C129.578 22.1406 129.87 22.25 130.234 22.25C131.578 22.25 133.245 21.7812 135.234 20.8438C135.609 20.6771 135.896 20.5938 136.094 20.5938C136.562 20.5938 136.797 20.7812 136.797 21.1562C136.797 21.4896 136.594 21.8073 136.188 22.1094C135.792 22.401 135.214 22.724 134.453 23.0781C133.693 23.4323 132.75 23.8125 131.625 24.2188C130.51 24.625 129.198 24.9688 127.688 25.25C126.177 25.5312 124.828 25.6719 123.641 25.6719C122.464 25.6719 121.583 25.474 121 25.0781C120.417 24.6823 120.125 24.1719 120.125 23.5469C120.125 22.9219 120.323 21.9844 120.719 20.7344C121.125 19.4844 121.531 18.25 121.938 17.0312C122.344 15.8021 122.547 14.9115 122.547 14.3594C122.547 13.7969 122.411 13.3958 122.141 13.1562C121.87 12.9062 121.464 12.7812 120.922 12.7812C120.391 12.7812 119.802 12.8646 119.156 13.0312C118.99 14.8125 118.297 17.526 117.078 21.1719C116.568 22.7031 116.281 23.6615 116.219 24.0469C116.156 24.4323 116.115 24.6562 116.094 24.7188C116.073 24.7708 116.036 24.8438 115.984 24.9375C115.891 25.1042 115.693 25.1875 115.391 25.1875C113.891 25.1875 112.406 25.2135 110.938 25.2656C109.479 25.3281 108.536 25.3594 108.109 25.3594C107.693 25.3594 107.484 25.1146 107.484 24.625C107.484 24.1354 107.646 23.4062 107.969 22.4375C108.292 21.4688 108.651 20.5052 109.047 19.5469C110.078 17.0052 110.594 15.1094 110.594 13.8594C110.594 12.9323 109.99 12.4688 108.781 12.4688C108.271 12.4688 107.786 12.5521 107.328 12.7188C106.922 14.1042 106.219 16.2969 105.219 19.2969C104.229 22.2969 103.672 23.9844 103.547 24.3594C103.38 24.9115 103.083 25.1875 102.656 25.1875L94.625 25.3594C94.5104 25.3594 94.3802 25.2865 94.2344 25.1406C94.099 25.0052 94.0312 24.8438 94.0312 24.6562C94.0312 24.4583 94.25 23.776 94.6875 22.6094C95.1354 21.4323 95.625 20.1719 96.1562 18.8281C96.6875 17.474 97.1719 15.9896 97.6094 14.375C98.0573 12.75 98.2812 11.4062 98.2812 10.3438L98.2656 9.75C98.2656 9.22917 98.7708 8.96875 99.7812 8.96875ZM149.891 3.01562C149.891 4.13021 149.271 5.10417 148.031 5.9375C146.802 6.76042 145.5 7.17188 144.125 7.17188C142.76 7.17188 141.698 6.89583 140.938 6.34375C140.177 5.78125 139.797 5.09896 139.797 4.29688C139.797 3.49479 140.089 2.76562 140.672 2.10938C141.255 1.45312 142.01 0.9375 142.938 0.5625C143.875 0.1875 144.891 0 145.984 0C147.078 0 148 0.291667 148.75 0.875C149.51 1.44792 149.891 2.16146 149.891 3.01562ZM145.5 22.4062C146.208 22.4062 147.167 22.2396 148.375 21.9062C149.594 21.5625 150.479 21.2604 151.031 21C151.583 20.7292 151.969 20.5938 152.188 20.5938C152.625 20.5938 152.844 20.8125 152.844 21.25C152.844 21.4479 152.682 21.6719 152.359 21.9219C151.297 22.7135 149.385 23.5365 146.625 24.3906C143.865 25.2448 141.401 25.6719 139.234 25.6719C137.891 25.6719 136.766 25.4583 135.859 25.0312C134.953 24.6042 134.5 23.9531 134.5 23.0781C134.5 22.5469 134.953 21.2448 135.859 19.1719C137.568 15.2448 138.422 12.2865 138.422 10.2969L138.406 9.70312C138.406 9.18229 138.911 8.92188 139.922 8.92188L147.641 8.75C147.911 8.75 148.115 8.83333 148.25 9C148.385 9.15625 148.453 9.33333 148.453 9.53125C148.453 10.25 148.125 11.4375 147.469 13.0938C146.812 14.7396 146.156 16.3594 145.5 17.9531C144.844 19.5469 144.516 20.6875 144.516 21.375C144.516 22.0625 144.844 22.4062 145.5 22.4062ZM162.125 21.7031C164.083 21.7031 165.719 20.2031 167.031 17.2031C167.635 15.8281 167.938 14.7135 167.938 13.8594C167.938 13.0052 167.792 12.4167 167.5 12.0938C167.219 11.7708 166.656 11.6094 165.812 11.6094C164.979 11.6094 164.073 12 163.094 12.7812C162.125 13.5521 161.344 14.526 160.75 15.7031C160.156 16.8802 159.859 17.9427 159.859 18.8906C159.859 19.8281 160.068 20.5312 160.484 21C160.901 21.4688 161.448 21.7031 162.125 21.7031ZM170.25 8.46875L177.406 8.79688C177.677 8.79688 177.88 8.88021 178.016 9.04688C178.151 9.20312 178.219 9.38021 178.219 9.57812C178.219 10.3385 177.901 11.5521 177.266 13.2188C176.641 14.875 176.01 16.5208 175.375 18.1562C174.75 19.7812 174.438 20.8594 174.438 21.3906C174.438 21.9115 174.516 22.2448 174.672 22.3906C174.839 22.5365 175.151 22.6094 175.609 22.6094C176.068 22.6094 176.901 22.3906 178.109 21.9531C179.328 21.5052 180.151 21.1667 180.578 20.9375C181.016 20.7083 181.349 20.5938 181.578 20.5938C181.984 20.5938 182.188 20.776 182.188 21.1406C182.188 21.9115 180.625 22.9219 177.5 24.1719C176.448 24.599 175.177 24.9531 173.688 25.2344C172.208 25.526 170.703 25.6719 169.172 25.6719C166.62 25.6719 165.083 24.8594 164.562 23.2344C162.938 24.8594 160.75 25.6719 158 25.6719C156.115 25.6719 154.521 25.2188 153.219 24.3125C151.802 23.3229 151.094 21.7656 151.094 19.6406C151.094 17.401 151.755 15.3385 153.078 13.4531C154.526 11.3594 156.464 9.91667 158.891 9.125C160.234 8.6875 161.677 8.46875 163.219 8.46875C165.583 8.46875 167.422 9.05208 168.734 10.2188C168.745 10.1562 168.75 10.0573 168.75 9.92188L168.734 9.25C168.734 8.72917 169.24 8.46875 170.25 8.46875Z" fill="#0D484E"/>
</svg>
